<svg xmlns="http://www.w3.org/2000/svg" xmlns:xlink="http://www.w3.org/1999/xlink" viewBox="0 0 465 186.5">
  <g id="stribe" style="isolation: isolate" class="g_to_interact_with">
    <path d="M398,63h3c2.56,3.53,6.2,6.86,7.5,11.5l-1.5,1c-9,3-19.17,5.35-30.5,8-11.14,2.6-25.54,6-37.5,8.5l-43,6c-11.43,2.52-22.93,6.87-30.5,13.5l-9.5,11c-4,.17-8.5.33-12.5.5-18.25,3.58-40.84,1.89-61.5,3l-.5-1.5c6.42-14.68,18.07-30.63,32.5-37,10.46-4.61,23.54-5,36-7.5h19c14.23-2.79,30-.23,46-2,21.1-2.32,42.36-5.32,61-10Z"  fill-rule="evenodd"/>
  </g>
  <g id="sole" style="isolation: isolate" class="g_to_interact_with"> 
    <path d="M47.5,109.5c6.76.57,11.53,4.7,17.5,6.5,15.67,4.72,33.06,3.7,50,7l44,1c14.42,5.45,59,.35,133-3,37.42-1.7,93.61,5.38,122.5-5l2,2c3.24,7.48-2,33.87-6.5,36.5-8.89,3.7-19.84.39-31,2.5-18,3.41-42.16,1-62,1l-112.5-1c-28.1,0-57.39,1.84-82.5-3H109c-24.47-4.72-49.65-4.42-65.5-17C42.42,127.53,43.76,116,47.5,109.5Z" fill-rule="evenodd"/>
    <path d="M64,123l.5,1C64.29,123.54,64.9,123.66,64,123Z" fill-rule="evenodd"/>
  </g>
  <g id="maincolor" style="isolation: isolate" class="g_to_interact_with">
    <path d="M292.5,18c13.34-1.64,14.55,28.93,24.5,36.5,17.88,13.59,55.66,7.19,71-4,5.07-3.7,6.29-9.82,9.5-15.5,1.79-3.16,5.57-3.22,6.5-7.5.33.17.17-.17.5,0,2.25,4,5.23,7.39,7.5,12-1.27,2.59-3.85,5.07-3,9.5l5.5,12c3.09,8,5.82,46.61.5,54-3.89,5.41-21.74,3.25-31,5-13.87,2.62-32.89,1-48.5,1-25.73,0-53.34-.31-77.5,1v-1.5c12.72-21.35,39.07-20.78,68-26.5,28.34-5.6,55.65-12.13,82-18.5l.5-1L401,63l-35,8-51,7H293c-25.63,4.92-54.83.65-76,8.5C205,90.94,193.58,103,187,113l-5,12H161.5c-7.24-2.23-17.91.67-26.5-1-17.94-3.49-39.06-2.71-55-6-10-2.07-24.2-1.33-29-8.5,11-18.94,38.69-20.9,60-30l6-5c9.13-3.59,17.16-3.49,28-6.5l12-6.5c12-4.25,20.75-5.74,33-9.5l11-6.5c9.63-2.21,19.53-5.38,29-7,4.55-.78,5.55-5.85,9-8,5.61-3.49,15.21-7.84,22.5-8.5,5.71,4.14,13.93,2.26,22.5,3C287.17,22.33,289.33,20.67,292.5,18Z"  fill-rule="evenodd"/>
  </g>
  <g id="shadow_Image" data-name="shadow Image">
    <image id="shadow_Image-2" data-name="shadow Image" width="930" height="373" transform="scale(0.5)" xlink:href="puma1.png"/>
  </g>
</svg>
